<svg xmlns="http://www.w3.org/2000/svg" width="20" height="20" viewBox="0 0 20 20"><path fill="#FB4349" d="M5.139 14.861l1.887-7.836 7.835-1.887-1.887 7.837-7.835 1.886zm3.383-6.339l-.937 3.891 3.892-.937.937-3.892-3.892.938z"/><circle fill="#FB4349" cx="10" cy="9.999" r="1.194"/><path fill="#FB4349" d="M10 20c-5.515 0-10-4.487-10-10 0-5.515 4.485-10 10-10 5.514 0 10 4.485 10 10 0 5.513-4.486 10-10 10zm0-18.193c-4.518 0-8.193 3.676-8.193 8.193 0 4.518 3.676 8.193 8.193 8.193 4.518 0 8.193-3.678 8.193-8.193 0-4.518-3.675-8.193-8.193-8.193zM-207.607-324.466h203.592v661.744h-203.592z"/></svg>