<svg xmlns="http://www.w3.org/2000/svg" width="100" height="32.993" viewBox="0 0 100 32.993"><path fill="#FF4148" d="M24.396 5.119c-1.583-3.469-5.24-5.341-9.596-5.098-8.509.474-15.276 8.473-14.774 17.465.252 4.512 2.215 8.793 5.62 11.635 3.183 2.658 6.708 4.096 11.226 3.844 1.372-.075 7.614-.491 7.708-9.604l.111-7.345-1.638.065c-5.962.31-6.785-2.882-6.862-4.27-.112-1.991 1.38-3.178 2.452-3.237 3.67-.205 3.284 4.424 3.284 4.424s5.015-2.3 2.469-7.879zm-2.73 21.375c-.719.803-5.963 1.875-9.989-1.727-5.062-4.525-4.167-11.109-2.04-13.491-.849 4.082.297 7.827 2.763 10.034 1.357 1.211 4.069 3.121 8.307 2.885.415-.023.848-.068 1.292-.133 0 .959-.124 1.764-.333 2.432zm.368-7.476c.198 1.146-.129 2.435-.129 2.435-.808.842-5.233.479-7.519-1.662-4.456-4.18-2.596-11.344.271-11.504-.964.744-1.375 2.625-1.296 4.029.067 1.209.989 6.467 8.673 6.702zm-3.183-13.607c-4.237-.99-8.446 1.505-10.2 3.322-2.69 2.787-3.504 6.302-3.384 8.462.306 5.479 2.78 8.654 6.064 10.707 3.758 2.348 7.903 1.982 7.903 1.982-2.606 1.973-15.571.363-16.291-12.561-.414-7.412 4.727-14.176 11.655-14.563 8.783-.49 8.49 6.179 8.49 6.179-.443-1.281-1.607-2.912-4.237-3.528z"/><g fill="#FF4148"><path d="M44.318 13.517l-2.416 2.792h-.188c-.59-1.503-1.718-2.711-3.328-2.711-2.146 0-3.569 2.147-3.569 4.481 0 2.309 1.369 4.213 3.489 4.213 2.066 0 3.247-1.771 3.542-3.221h.188l2.817 2.469c-.832 2.067-2.871 4.242-6.547 4.242-4.643 0-7.246-3.463-7.246-7.729 0-4.696 3.14-7.943 7.299-7.943 3.275-.002 5.208 2.012 5.959 3.407zM60.26 18.08c0 4.373-2.873 7.701-7.381 7.701-4.456 0-7.354-3.273-7.354-7.701 0-4.562 3.113-7.972 7.381-7.972 4.267 0 7.354 3.434 7.354 7.972zm-10.977.026c0 2.388 1.422 4.185 3.569 4.185 2.283 0 3.649-1.983 3.649-4.264 0-2.311-1.366-4.43-3.595-4.43-2.227 0-3.623 2.119-3.623 4.509zM74.08 15.906v9.553h-2.927l-.378-1.984h-.078c-.806 1.447-2.336 2.309-4.401 2.309-3.086 0-4.562-1.664-4.562-4.188 0-2.309 1.183-3.999 4.562-4.75 3.489-.751 4.105-1.047 4.105-1.852 0-.858-.727-1.558-2.389-1.558s-3.193 1.101-4.078 2.845h-.188l-1.798-3.086c1.368-1.958 3.542-3.086 6.093-3.086 3.381-.001 6.039 1.958 6.039 5.797zm-3.705 2.469c-.241.51-1.287.857-2.926 1.231-1.637.378-2.094.915-2.094 1.64s.513 1.18 1.611 1.18c1.878 0 3.461-1.1 3.461-2.439v-1.611h-.052v-.001zM88.247 12.846l-1.528 3.112h-.189c-1.314-1.61-2.924-2.496-4.293-2.496-1.368 0-1.986.671-1.986 1.316 0 .697.217 1.02 2.898 1.662 3.758.885 5.664 1.934 5.664 4.832 0 2.79-2.631 4.51-5.904 4.51-3.274 0-5.502-1.396-6.684-2.658l1.53-3.166h.188c1.205 1.207 2.896 2.334 4.694 2.334 1.665 0 2.416-.457 2.416-1.234 0-.697-.429-.992-3.273-1.663-3.542-.832-5.152-2.254-5.152-4.696 0-2.442 2.014-4.588 5.527-4.588 3.087-.003 5.314 1.796 6.092 2.735zM100 10.43v3.489h-4.159v6.789c0 .859.295 1.154.968 1.154.645 0 1.366-.322 1.959-.777h.187l.914 3.703c-.673.428-2.147.992-3.731.992-2.281 0-4.052-1.182-4.052-4.134v-7.729h-2.469v-2.173c1.958-.804 3.221-2.791 3.864-5.071h2.28v3.756l4.239.001z"/></g></svg>