<svg xmlns="http://www.w3.org/2000/svg" width="20" height="20" viewBox="0 0 20 20"><path fill="#073C60" d="M12.129-22.298l-5.826 5.828-1.476-1.478 3.312-3.311h-8.139v-2.083h8.139l-3.309-3.308 1.474-1.476 5.825 5.828zm7.871-6.836v13.746h-8.458v-2.084h6.375v-9.576h-6.375v-2.088h8.458v.002zM-27.654 12.154h4v7.846h-4zM-19.654 2.094h4v17.906h-4zM-11.654 6.103h4v13.897h-4zM10.343 19.985v-2.493c.804 0 1.458-.651 1.458-1.451 0-.801-.654-1.45-1.459-1.45h-10.342v-2.493h10.342c2.185 0 3.964 1.769 3.964 3.943 0 2.174-1.779 3.944-3.963 3.944zM6.469 7.874h-6.469v-2.492h6.469c.805 0 1.459-.651 1.459-1.452 0-.8-.654-1.451-1.458-1.451v-2.493c2.184 0 3.961 1.77 3.961 3.944s-1.776 3.944-3.962 3.944zM0 11.246v-2.492l14.727-.005c1.564-.002 2.77-1.202 2.77-2.677 0-1.474-1.204-2.673-2.685-2.673v-2.494c2.861 0 5.188 2.319 5.188 5.166 0 2.85-2.328 5.167-5.19 5.167l-.024.004-14.786.004z"/></svg>