<svg xmlns="http://www.w3.org/2000/svg" width="20" height="20" viewBox="0 0 20 20"><path fill="#FB4349" d="M10 20c-5.515 0-10-4.486-10-10 0-5.515 4.485-10 10-10 5.514 0 10 4.485 10 10 0 5.514-4.486 10-10 10zm0-18.193c-4.518 0-8.193 3.676-8.193 8.193 0 4.518 3.676 8.193 8.193 8.193 4.518 0 8.193-3.678 8.193-8.193 0-4.518-3.675-8.193-8.193-8.193zM12.766 8.116c0 .424-.104.778-.312 1.062-.207.284-.535.538-.982.762-.377.192-.623.356-.738.492-.117.137-.191.263-.223.378-.032.116-.048.251-.048.402v.348h-1.418v-.48c0-.72.217-1.232.648-1.536.152-.112.377-.244.673-.397.296-.151.509-.306.642-.462.133-.155.197-.355.197-.6s-.1-.448-.299-.612c-.201-.163-.497-.246-.888-.246-.393 0-.7.095-.924.282-.224.189-.352.435-.385.739h-1.475c.04-.696.296-1.254.768-1.674.471-.42 1.134-.63 1.986-.63.852 0 1.528.208 2.028.624s.75.932.75 1.548zm-3.69 4.32c.18-.176.416-.264.708-.264s.534.088.726.264c.191.177.287.4.287.672s-.096.498-.287.679c-.192.18-.434.27-.726.27s-.528-.09-.708-.27c-.18-.181-.271-.406-.271-.679 0-.272.091-.496.271-.672z"/></svg>