<svg xmlns="http://www.w3.org/2000/svg" width="20" height="20" viewBox="0 0 20 20"><path fill="#073C60" d="M15.636 7.932c-.683-1.506-1.533-3.379-4.146-3.379-2.97 0-4.004 3.1-5.005 6.098-1.236 3.705-2.245 6.134-4.892 6.134-1.104 0-1.48-.394-1.592-.564v2.321c.443.148.967.243 1.592.243 4.286 0 5.674-4.159 6.789-7.501.982-2.943 1.682-4.73 3.108-4.73 1.271 0 1.632.676 2.326 2.206.832 1.834 1.973 4.347 6.185 4.347v-2c-2.925-.002-3.592-1.472-4.365-3.175zM12.129-22.298l-5.826 5.828-1.476-1.478 3.312-3.311h-8.139v-2.083h8.139l-3.309-3.308 1.474-1.476 5.825 5.828zm7.871-6.836v13.746h-8.458v-2.084h6.375v-9.576h-6.375v-2.088h8.458v.002zM-27.654 12.154h4v7.846h-4zM-19.654 2.094h4v17.906h-4zM-11.654 6.103h4v13.897h-4zM36.926 13.485v-2.493c.804 0 1.458-.651 1.458-1.451 0-.801-.654-1.45-1.459-1.45h-10.342v-2.493h10.342c2.185 0 3.964 1.769 3.964 3.943 0 2.174-1.779 3.944-3.963 3.944zM33.053 1.374h-6.47v-2.492h6.47c.805 0 1.459-.651 1.459-1.452 0-.8-.654-1.451-1.457-1.451v-2.493c2.184 0 3.961 1.77 3.961 3.944s-1.778 3.944-3.963 3.944zM26.583 4.746v-2.492l14.727-.005c1.564-.002 2.77-1.202 2.77-2.677 0-1.474-1.204-2.673-2.685-2.673v-2.493c2.861 0 5.188 2.318 5.188 5.166 0 2.85-2.328 5.167-5.19 5.167l-.024.004-14.786.003zM14.997 41.438c-1.776 0-2.736-.768-3.438-1.328-.56-.447-.84-.672-1.565-.672-.724 0-1.004.225-1.562.671-.701.562-1.661 1.329-3.437 1.329-1.775 0-2.735-.769-3.435-1.329-.558-.447-.838-.671-1.56-.671v-3c1.775 0 2.735.769 3.435 1.329.558.446.838.671 1.56.671.724 0 1.004-.225 1.563-.671.701-.562 1.661-1.329 3.437-1.329 1.777 0 2.737.768 3.438 1.328.56.447.84.672 1.564.672s1.005-.225 1.564-.672c.701-.561 1.661-1.328 3.438-1.328v3c-.726 0-1.006.225-1.565.672-.701.56-1.661 1.328-3.437 1.328zM14.997 33.938c-1.776 0-2.736-.768-3.438-1.328-.56-.447-.84-.672-1.565-.672-.724 0-1.004.225-1.562.671-.701.562-1.661 1.329-3.437 1.329-1.775 0-2.735-.769-3.435-1.329-.558-.447-.838-.671-1.56-.671v-3c1.775 0 2.735.769 3.435 1.329.558.446.838.671 1.56.671.724 0 1.004-.225 1.563-.671.701-.562 1.661-1.329 3.437-1.329 1.777 0 2.737.768 3.438 1.328.56.447.84.672 1.564.672s1.005-.225 1.564-.672c.701-.561 1.661-1.328 3.438-1.328v3c-.726 0-1.006.225-1.565.672-.701.56-1.661 1.328-3.437 1.328zM14.997 26.438c-1.776 0-2.736-.768-3.438-1.328-.56-.447-.84-.672-1.565-.672-.724 0-1.004.225-1.562.672-.701.561-1.661 1.328-3.437 1.328-1.775 0-2.735-.768-3.435-1.329-.558-.447-.838-.671-1.56-.671v-3c1.775 0 2.735.768 3.435 1.329.558.446.838.671 1.56.671.724 0 1.004-.225 1.563-.672.701-.561 1.661-1.328 3.437-1.328 1.777 0 2.737.768 3.438 1.328.56.447.84.672 1.564.672s1.005-.225 1.564-.672c.701-.561 1.661-1.328 3.438-1.328v3c-.726 0-1.006.225-1.565.672-.701.56-1.661 1.328-3.437 1.328z"/></svg>