<svg xmlns="http://www.w3.org/2000/svg" width="17" height="17" viewBox="4 4 17 17" enable-background="new 4 4 17 17"><path fill="#fff" d="M-22.874 2.828v17.084h2.819l2.212 2.212 2.212-2.212h12.757v-17.084h-20zm2.757 3.966h6.364v2h-6.364v-2zm10.494 9.093h-10.494v-2h10.494v2zm3.993 0h-1.993v-2h1.993v2zm0-3.517h-14.487v-2h14.487v2zm0-3.576h-6.123v-2h6.123v2z"/><path stroke="#fff" stroke-width="2" stroke-miterlimit="10" fill="none" d="M57.5-2.773v6.296M60.648.375h-6.296M51.352.375h-8.54v12.101h2.751l2.094 2.093 2.094-2.093h7.749v-5.953"/><path fill="#fff" d="M13.952 6c1.267 0 2.457.493 3.353 1.389 1.847 1.848 1.847 4.855 0 6.703-.896.895-2.086 1.388-3.353 1.388-1.266 0-2.457-.493-3.352-1.388-1.848-1.848-1.848-4.855 0-6.703.896-.896 2.086-1.389 3.352-1.389m0-1c-1.469 0-2.938.561-4.059 1.682-2.241 2.242-2.241 5.876 0 8.117 1.121 1.121 2.59 1.681 4.059 1.681 1.47 0 2.938-.56 4.06-1.681 2.24-2.241 2.24-5.875 0-8.117-1.121-1.121-2.59-1.682-4.06-1.682z"/><path stroke="#fff" stroke-miterlimit="10" fill="none" d="M4.692 20l3.512-3.511"/></svg>