<?xml version="1.0" encoding="utf-8"?>
<!-- Generator: Adobe Illustrator 16.0.0, SVG Export Plug-In . SVG Version: 6.00 Build 0)  -->
<!DOCTYPE svg PUBLIC "-//W3C//DTD SVG 1.1//EN" "http://www.w3.org/Graphics/SVG/1.1/DTD/svg11.dtd">
<svg version="1.1" id="Layer_1" xmlns="http://www.w3.org/2000/svg" xmlns:xlink="http://www.w3.org/1999/xlink" x="0px" y="0px"
	 width="50px" height="50px" viewBox="0 0 50 50" enable-background="new 0 0 50 50" xml:space="preserve">
<path fill="#F34644" d="M30.393,17.872c0-3.044,2.369-4.724,4.01-4.724c5.604,0,4.359,7.828,4.359,7.828s8.48-3.562,4.696-12.6
	c-2.248-5.363-7.526-8.574-14.18-8.574c-12.996,0-23.976,11.603-23.976,25.336c0,6.891,2.722,13.228,7.665,17.842
	c4.62,4.317,10.922,6.8,17.296,6.815c0.073,0,0.191,0.006,0.345,0.006c5.573,0,12.088-3.62,12.088-13.825V24.963l-2.222-0.012
	C31.375,24.921,30.393,19.991,30.393,17.872z M37.485,40.687c-1.164,1.161-9.24,2.35-15.062-3.475
	c-7.32-7.315-4.17-15.581-3.15-17.53c-0.61,4.508,0.965,9.023,4.533,12.587c1.963,1.965,5.943,4.839,12.417,4.839
	c0.633,0,1.297-0.036,1.976-0.094C38.116,38.476,37.861,39.688,37.485,40.687z M38.213,32.934c-1.719,1.07-7.624-0.112-10.742-3.226
	c-7.128-7.134-1.77-14.452-0.875-15.337c-0.412,1.055-0.656,2.228-0.656,3.501c0,1.81,1.06,10.457,12.741,11.466
	C38.884,31.1,38.213,32.934,38.213,32.934z M9.757,25.139c0-11.32,8.94-20.886,19.521-20.886c5.103,0,7.757,2.225,9.093,4.093
	c-0.852-0.367-1.848-0.634-3.112-0.788L35.16,7.549c-8.086-0.618-13.158,2.374-15.984,4.994c-4.332,4.014-5.871,9.292-5.871,12.597
	c0,9.775,6.405,17.963,14.971,20.11C16.642,44.225,9.757,34.528,9.757,25.139z"/>
</svg>
