<?xml version="1.0" encoding="utf-8"?>
<!-- Generator: Adobe Illustrator 16.0.0, SVG Export Plug-In . SVG Version: 6.00 Build 0)  -->
<!DOCTYPE svg PUBLIC "-//W3C//DTD SVG 1.1//EN" "http://www.w3.org/Graphics/SVG/1.1/DTD/svg11.dtd">
<svg version="1.1" id="Layer_1" xmlns="http://www.w3.org/2000/svg" xmlns:xlink="http://www.w3.org/1999/xlink" x="0px" y="0px"
	 width="50px" height="50px" viewBox="0 0 50 50" enable-background="new 0 0 50 50" xml:space="preserve">
<g>
	<path fill="#143A63" d="M42.939,7.759c-2.397-5.257-7.942-8.096-14.542-7.728C15.501,0.751,5.248,12.873,6.008,26.501
		c0.381,6.837,3.356,13.325,8.515,17.631c4.825,4.028,10.167,6.207,17.012,5.825c2.079-0.117,11.539-0.748,11.681-14.556
		l0.167-11.131l-2.481,0.1c-9.036,0.47-10.283-4.367-10.4-6.47c-0.169-3.016,2.092-4.815,3.718-4.905
		c5.562-0.311,4.978,6.705,4.978,6.705S46.797,16.212,42.939,7.759z M38.801,40.148c-1.089,1.219-9.037,2.84-15.137-2.614
		c-7.67-6.859-6.317-16.837-3.092-20.444c-1.287,6.185,0.451,11.86,4.19,15.203c2.056,1.839,6.166,4.732,12.588,4.373
		c0.628-0.035,1.283-0.104,1.958-0.2C39.307,37.92,39.12,39.139,38.801,40.148z M39.358,28.82c0.302,1.734-0.195,3.689-0.195,3.689
		c-1.223,1.274-7.93,0.727-11.394-2.521c-6.753-6.332-3.933-17.189,0.411-17.432c-1.46,1.128-2.084,3.979-1.966,6.104
		C26.317,20.496,27.714,28.463,39.358,28.82z M34.534,8.199c-6.421-1.501-12.798,2.281-15.457,5.035
		C15,17.458,13.767,22.782,13.95,26.06c0.463,8.301,4.212,13.113,9.189,16.224c5.695,3.559,11.977,3.007,11.977,3.007
		c-3.95,2.989-23.597,0.55-24.688-19.035C9.802,15.021,17.779,4.547,28.267,3.782c5.233-0.381,8.5,1.226,10.305,3.187
		c2.59,2.815,2.388,6.579,2.388,6.579C40.284,11.605,38.522,9.133,34.534,8.199z"/>
</g>
</svg>
