<?xml version="1.0" encoding="utf-8"?>
<!-- Generator: Adobe Illustrator 16.0.0, SVG Export Plug-In . SVG Version: 6.00 Build 0)  -->
<!DOCTYPE svg PUBLIC "-//W3C//DTD SVG 1.1//EN" "http://www.w3.org/Graphics/SVG/1.1/DTD/svg11.dtd">
<svg version="1.1" id="Layer_1" xmlns="http://www.w3.org/2000/svg" xmlns:xlink="http://www.w3.org/1999/xlink" x="0px" y="0px"
	 width="50px" height="50px" viewBox="0 0 50 50" enable-background="new 0 0 50 50" xml:space="preserve">
<path fill="#143A63" d="M42.123,37.987v-3.045v-1.788V30.31v-4.653l-1.409-0.005c-9.867-0.038-10.933-5.663-10.933-8.08
	c0-3.392,2.504-5.67,4.843-5.67c5.788,0,5.216,8.227,5.216,8.227s6.094-4.43,3.066-12.016C40.865,2.997,35.759,0,29.483,0
	C16.89,0,6.25,11.442,6.25,24.985c0,13.544,11.537,24.986,25.193,24.986h1.303C32.991,49.984,33.415,50,33.953,50
	c0.365,0,0.783-0.008,1.233-0.028h6.956l-0.02-8.303V37.987z M39.294,38.984v2.244c-2.045,0.767-4.184,1.154-6.369,1.154
	c-8.721,0-15.815-7.805-15.815-17.397c0-1.302,0.19-3.803,1.409-6.358c-0.029,0.105-0.05,0.217-0.077,0.324
	c-0.043,0.167-0.083,0.335-0.12,0.506c-0.059,0.267-0.111,0.539-0.158,0.813c-0.029,0.17-0.059,0.34-0.083,0.513
	c-0.043,0.302-0.075,0.61-0.104,0.921c-0.014,0.153-0.033,0.303-0.043,0.458c-0.032,0.468-0.052,0.944-0.052,1.432
	c0,8.792,7.2,15.944,16.049,15.944l0.663,0.002c0.291,0,0.596-0.006,0.908-0.018c0.081-0.002,0.162-0.006,0.245-0.01
	c0.322-0.015,0.653-0.035,0.999-0.07c0.009-0.001,0.016-0.001,0.024-0.002c0.344-0.034,0.703-0.087,1.068-0.147
	c0.096-0.017,0.192-0.034,0.289-0.052c0.351-0.065,0.708-0.143,1.078-0.238C39.236,38.995,39.263,38.992,39.294,38.984z
	 M39.294,33.383v2.648c-0.021,0.007-0.039,0.012-0.06,0.018c-0.404,0.129-0.794,0.231-1.173,0.315
	c-0.043,0.01-0.088,0.022-0.131,0.031c-0.374,0.079-0.732,0.137-1.082,0.182c-0.065,0.008-0.132,0.018-0.197,0.024
	c-0.336,0.039-0.662,0.065-0.975,0.081c-0.056,0.004-0.11,0.005-0.165,0.008c-0.317,0.013-0.626,0.021-0.918,0.021l-0.663-0.002
	c-7.413,0-13.22-5.761-13.22-13.115c0-0.438,0.016-0.865,0.045-1.283c0.01-0.133,0.03-0.26,0.042-0.392
	c0.026-0.279,0.051-0.561,0.092-0.831c0.022-0.153,0.057-0.297,0.084-0.448c0.044-0.239,0.083-0.481,0.138-0.712
	c0.037-0.16,0.086-0.311,0.129-0.466c0.058-0.211,0.112-0.426,0.179-0.631c0.052-0.158,0.116-0.306,0.173-0.459
	c0.072-0.193,0.14-0.389,0.221-0.574c0.066-0.152,0.144-0.294,0.216-0.442c0.086-0.176,0.168-0.355,0.263-0.526
	c0.081-0.145,0.173-0.281,0.259-0.421c0.1-0.161,0.196-0.325,0.304-0.48c0.095-0.137,0.202-0.265,0.303-0.397
	c0.113-0.146,0.221-0.295,0.341-0.435c0.014-0.016,0.029-0.029,0.042-0.044c-0.019,0.049-0.032,0.101-0.05,0.151
	c-0.061,0.166-0.115,0.334-0.167,0.503c-0.038,0.124-0.077,0.246-0.11,0.37c-0.048,0.179-0.088,0.359-0.127,0.541
	c-0.026,0.119-0.054,0.236-0.075,0.355c-0.036,0.202-0.062,0.406-0.086,0.611c-0.012,0.102-0.029,0.202-0.039,0.304
	c-0.028,0.308-0.044,0.617-0.044,0.929c0,6.722,4.181,14.572,15.961,14.572C38.969,33.389,39.13,33.387,39.294,33.383z
	 M39.294,28.438v2.111c-0.026,0.001-0.055,0.003-0.08,0.003c-0.149,0.004-0.293,0.007-0.406,0.007
	c-9.682,0-13.131-6.066-13.131-11.743c0-0.25,0.016-0.498,0.04-0.745c0.008-0.077,0.02-0.153,0.029-0.229
	c0.022-0.171,0.048-0.341,0.082-0.51c0.017-0.084,0.035-0.169,0.054-0.252c0.039-0.168,0.083-0.333,0.133-0.499
	c0.021-0.072,0.042-0.146,0.065-0.217c0.155-0.466,0.352-0.917,0.587-1.349c0.035-0.063,0.073-0.125,0.109-0.187
	c0.089-0.153,0.182-0.303,0.279-0.45c0.045-0.068,0.093-0.136,0.141-0.203c0.102-0.144,0.21-0.285,0.321-0.422
	c0.046-0.057,0.09-0.114,0.138-0.169c0.16-0.188,0.327-0.372,0.504-0.546c-0.749,1.273-1.206,2.807-1.206,4.533
	C26.952,19.317,27.565,27.769,39.294,28.438z M9.08,24.985c0-12.01,9.343-22.156,20.403-22.156c5.549,0,8.425,2.543,9.847,4.614
	c-2.276-2.136-5.629-3.271-9.844-3.271c-0.001,0-0.002,0-0.003,0c-10.369,0-19.128,9.531-19.128,20.812
	c0,5.15,1.75,10.558,4.811,15.019C11.412,36.021,9.08,30.716,9.08,24.985z M34.913,47.142h-2.13
	c-11.549,0-19.598-11.677-19.598-22.156c0-9.748,7.463-17.983,16.321-17.983c0.001,0,0.001,0,0.002,0
	c1.629,0,3.456,0.206,5.122,0.838c-0.161-0.012-0.316-0.038-0.48-0.043l0,0c-0.001,0-0.001,0-0.002,0l0,0h-0.104
	c-0.287,0.004-0.578,0.008-0.903,0.021V7.817c-0.013,0-0.023,0.002-0.035,0.003c-0.006,0-0.012,0-0.018,0c-0.001,0-0.002,0-0.003,0
	s-0.002,0-0.002,0l0,0c-0.003,0-0.007,0.001-0.009,0.001C19.221,8.383,14.28,17.05,14.28,24.985
	c0,11.153,8.364,20.228,18.645,20.228c2.176,0,4.31-0.334,6.369-0.991v2.068C38.396,46.804,36.607,47.064,34.913,47.142z"/>
</svg>
