<?xml version="1.0" encoding="utf-8"?>
<!-- Generator: Adobe Illustrator 16.0.0, SVG Export Plug-In . SVG Version: 6.00 Build 0)  -->
<!DOCTYPE svg PUBLIC "-//W3C//DTD SVG 1.1//EN" "http://www.w3.org/Graphics/SVG/1.1/DTD/svg11.dtd">
<svg version="1.1" id="Layer_1" xmlns="http://www.w3.org/2000/svg" xmlns:xlink="http://www.w3.org/1999/xlink" x="0px" y="0px"
	 width="100px" height="32.993px" viewBox="-30 3.503 100 32.993" enable-background="new -30 3.503 100 32.993"
	 xml:space="preserve">
<g>
	<g>
		<path fill="#FFFFFF" d="M-5.603,8.622c-1.583-3.469-5.241-5.341-9.596-5.098c-8.51,0.474-15.276,8.473-14.774,17.465
			c0.252,4.512,2.215,8.793,5.62,11.635c3.183,2.658,6.708,4.096,11.226,3.844c1.372-0.076,7.614-0.492,7.708-9.604l0.111-7.345
			l-1.638,0.065c-5.962,0.31-6.785-2.882-6.862-4.269c-0.112-1.991,1.38-3.178,2.452-3.237c3.67-0.205,3.284,4.424,3.284,4.424
			S-3.057,14.201-5.603,8.622z M-8.334,29.996c-0.719,0.804-5.963,1.875-9.989-1.726c-5.062-4.525-4.167-11.11-2.04-13.491
			c-0.849,4.082,0.297,7.827,2.764,10.034c1.357,1.211,4.069,3.121,8.307,2.884c0.415-0.023,0.848-0.068,1.292-0.132
			C-8.001,28.524-8.124,29.328-8.334,29.996z M-7.966,22.521c0.198,1.145-0.129,2.435-0.129,2.435
			c-0.808,0.841-5.233,0.479-7.519-1.663c-4.456-4.179-2.596-11.343,0.271-11.503c-0.964,0.744-1.375,2.625-1.296,4.029
			C-16.572,17.028-15.65,22.285-7.966,22.521z M-11.149,8.914c-4.237-0.99-8.446,1.505-10.2,3.322
			c-2.69,2.787-3.504,6.301-3.384,8.462c0.306,5.478,2.78,8.654,6.064,10.707c3.758,2.348,7.903,1.983,7.903,1.983
			c-2.606,1.972-15.571,0.362-16.291-12.562c-0.413-7.412,4.728-14.176,11.655-14.563c8.783-0.49,8.49,6.179,8.49,6.179
			C-7.355,11.161-8.518,9.53-11.149,8.914z"/>
	</g>
	<g>
		<path fill="#FFFFFF" d="M14.319,17.02l-2.416,2.792h-0.188c-0.59-1.503-1.718-2.711-3.328-2.711c-2.146,0-3.569,2.147-3.569,4.482
			c0,2.308,1.369,4.212,3.489,4.212c2.066,0,3.247-1.77,3.542-3.22h0.188l2.817,2.469c-0.832,2.067-2.871,4.241-6.547,4.241
			c-4.643,0-7.246-3.463-7.246-7.729c0-4.696,3.14-7.943,7.299-7.943C11.635,13.611,13.568,15.625,14.319,17.02z"/>
		<path fill="#FFFFFF" d="M30.26,21.582c0,4.373-2.873,7.702-7.381,7.702c-4.455,0-7.353-3.274-7.353-7.702
			c0-4.562,3.113-7.971,7.38-7.971C27.173,13.611,30.26,17.046,30.26,21.582z M19.283,21.609c0,2.387,1.422,4.185,3.569,4.185
			c2.283,0,3.649-1.984,3.649-4.265c0-2.309-1.366-4.429-3.595-4.429C20.679,17.1,19.283,19.22,19.283,21.609z"/>
		<path fill="#FFFFFF" d="M44.08,19.408v9.554h-2.926l-0.378-1.985h-0.079c-0.805,1.448-2.335,2.308-4.401,2.308
			c-3.086,0-4.562-1.664-4.562-4.187c0-2.309,1.182-3.999,4.562-4.75c3.489-0.751,4.106-1.046,4.106-1.852
			c0-0.858-0.727-1.557-2.389-1.557s-3.193,1.101-4.078,2.844h-0.189l-1.798-3.086c1.369-1.958,3.542-3.086,6.093-3.086
			C41.422,13.611,44.08,15.57,44.08,19.408z M40.375,21.877c-0.241,0.51-1.287,0.858-2.926,1.232
			c-1.636,0.378-2.093,0.915-2.093,1.64c0,0.724,0.512,1.18,1.611,1.18c1.878,0,3.461-1.1,3.461-2.441v-1.61H40.375z"/>
		<path fill="#FFFFFF" d="M58.247,16.349l-1.528,3.112h-0.189c-1.315-1.61-2.925-2.495-4.294-2.495
			c-1.368,0-1.986,0.672-1.986,1.315c0,0.698,0.217,1.02,2.899,1.663c3.757,0.885,5.664,1.933,5.664,4.832
			c0,2.79-2.632,4.509-5.905,4.509c-3.274,0-5.502-1.396-6.683-2.657l1.53-3.167h0.188c1.205,1.207,2.896,2.334,4.694,2.334
			c1.665,0,2.416-0.457,2.416-1.234c0-0.697-0.429-0.992-3.274-1.663c-3.541-0.832-5.152-2.254-5.152-4.696s2.014-4.589,5.528-4.589
			C55.242,13.611,57.469,15.41,58.247,16.349z"/>
		<path fill="#FFFFFF" d="M70,13.933v3.489h-4.159v6.79c0,0.859,0.295,1.154,0.967,1.154c0.645,0,1.367-0.323,1.96-0.777h0.186
			l0.914,3.702c-0.673,0.428-2.147,0.993-3.731,0.993c-2.281,0-4.052-1.182-4.052-4.134v-7.729h-2.469v-2.174
			c1.958-0.804,3.221-2.791,3.865-5.071h2.28v3.756H70z"/>
	</g>
</g>
</svg>
