<?xml version="1.0" encoding="utf-8"?>
<!-- Generator: Adobe Illustrator 16.0.0, SVG Export Plug-In . SVG Version: 6.00 Build 0)  -->
<!DOCTYPE svg PUBLIC "-//W3C//DTD SVG 1.1//EN" "http://www.w3.org/Graphics/SVG/1.1/DTD/svg11.dtd">
<svg version="1.1" id="Layer_1" xmlns="http://www.w3.org/2000/svg" xmlns:xlink="http://www.w3.org/1999/xlink" x="0px" y="0px"
	 width="40px" height="40px" viewBox="5 5 40 40" enable-background="new 5 5 40 40" xml:space="preserve">
<g>
	<path fill="#143A63" d="M39.352,11.207c-1.918-4.205-6.354-6.477-11.635-6.182C17.401,5.601,9.199,15.298,9.807,26.201
		c0.305,5.469,2.685,10.659,6.812,14.104c3.86,3.222,8.133,4.965,13.61,4.659c1.662-0.094,9.23-0.598,9.344-11.645l0.134-8.904
		l-1.984,0.08c-7.229,0.375-8.227-3.494-8.32-5.176c-0.135-2.413,1.674-3.852,2.975-3.924c4.449-0.249,3.982,5.364,3.982,5.364
		S42.438,17.97,39.352,11.207z M36.04,37.118c-0.871,0.976-7.229,2.272-12.109-2.091c-6.136-5.487-5.053-13.47-2.474-16.355
		c-1.029,4.948,0.361,9.488,3.352,12.162c1.646,1.472,4.933,3.786,10.07,3.499c0.503-0.028,1.026-0.083,1.566-0.16
		C36.445,35.336,36.296,36.311,36.04,37.118z M36.485,28.056c0.242,1.388-0.155,2.951-0.155,2.951
		c-0.979,1.02-6.344,0.582-9.114-2.017c-5.403-5.065-3.147-13.751,0.328-13.945c-1.167,0.902-1.667,3.183-1.573,4.883
		C26.053,21.397,27.171,27.771,36.485,28.056z M32.627,11.56c-5.137-1.201-10.238,1.825-12.365,4.028
		C17,18.966,16.014,23.226,16.16,25.849c0.371,6.641,3.37,10.489,7.351,12.979c4.556,2.847,9.582,2.405,9.582,2.405
		c-3.16,2.392-18.877,0.44-19.75-15.228c-0.501-8.988,5.88-17.367,14.271-17.979c4.186-0.305,6.8,0.98,8.243,2.549
		c2.072,2.252,1.91,5.263,1.91,5.263C37.228,14.284,35.817,12.306,32.627,11.56z"/>
</g>
</svg>
