<?xml version="1.0" encoding="utf-8"?>
<!-- Generator: Adobe Illustrator 16.0.0, SVG Export Plug-In . SVG Version: 6.00 Build 0)  -->
<!DOCTYPE svg PUBLIC "-//W3C//DTD SVG 1.1//EN" "http://www.w3.org/Graphics/SVG/1.1/DTD/svg11.dtd">
<svg version="1.1" id="Layer_1" xmlns="http://www.w3.org/2000/svg" xmlns:xlink="http://www.w3.org/1999/xlink" x="0px" y="0px"
	 width="100px" height="32.993px" viewBox="0 0 100 32.993" enable-background="new 0 0 100 32.993" xml:space="preserve">
<g>
	<g>
		<g>
			<path fill="#FF4148" d="M24.396,5.119C22.813,1.65,19.156-0.222,14.8,0.021C6.291,0.495-0.476,8.494,0.026,17.486
				c0.252,4.512,2.215,8.793,5.62,11.635c3.183,2.658,6.708,4.096,11.226,3.844c1.372-0.075,7.614-0.491,7.708-9.604l0.111-7.345
				l-1.638,0.065c-5.962,0.31-6.785-2.882-6.862-4.27c-0.112-1.991,1.38-3.178,2.452-3.237c3.67-0.205,3.284,4.424,3.284,4.424
				S26.942,10.698,24.396,5.119z M21.666,26.494c-0.719,0.803-5.963,1.875-9.989-1.727c-5.062-4.525-4.167-11.109-2.04-13.491
				C8.788,15.358,9.934,19.103,12.4,21.31c1.357,1.211,4.069,3.121,8.307,2.885c0.415-0.023,0.848-0.068,1.292-0.133
				C21.999,25.021,21.875,25.826,21.666,26.494z M22.034,19.018c0.198,1.146-0.129,2.435-0.129,2.435
				c-0.808,0.842-5.233,0.479-7.519-1.662C9.93,15.611,11.79,8.447,14.657,8.287c-0.964,0.744-1.375,2.625-1.296,4.029
				C13.428,13.525,14.35,18.783,22.034,19.018z M18.851,5.411c-4.237-0.99-8.446,1.505-10.2,3.322
				c-2.69,2.787-3.504,6.302-3.384,8.462c0.306,5.479,2.78,8.654,6.064,10.707c3.758,2.348,7.903,1.982,7.903,1.982
				c-2.606,1.973-15.571,0.363-16.291-12.561C2.529,9.911,7.67,3.147,14.598,2.76c8.783-0.49,8.49,6.179,8.49,6.179
				C22.645,7.658,21.481,6.027,18.851,5.411z"/>
		</g>
		<g>
			<path fill="#FF4148" d="M44.318,13.517l-2.416,2.792h-0.188c-0.59-1.503-1.718-2.711-3.328-2.711
				c-2.146,0-3.569,2.147-3.569,4.481c0,2.309,1.369,4.213,3.489,4.213c2.066,0,3.247-1.771,3.542-3.221h0.188l2.817,2.469
				c-0.832,2.067-2.871,4.242-6.547,4.242c-4.643,0-7.246-3.463-7.246-7.729c0-4.696,3.14-7.943,7.299-7.943
				C41.634,10.108,43.567,12.122,44.318,13.517z"/>
			<path fill="#FF4148" d="M60.26,18.08c0,4.373-2.873,7.701-7.381,7.701c-4.456,0-7.354-3.273-7.354-7.701
				c0-4.562,3.113-7.972,7.381-7.972C57.173,10.108,60.26,13.542,60.26,18.08z M49.283,18.106c0,2.388,1.422,4.185,3.569,4.185
				c2.283,0,3.649-1.983,3.649-4.264c0-2.311-1.366-4.43-3.595-4.43C50.679,13.597,49.283,15.716,49.283,18.106z"/>
			<path fill="#FF4148" d="M74.08,15.906v9.553h-2.927l-0.378-1.984h-0.078c-0.806,1.447-2.336,2.309-4.401,2.309
				c-3.086,0-4.562-1.664-4.562-4.188c0-2.309,1.183-3.999,4.562-4.75c3.489-0.751,4.105-1.047,4.105-1.852
				c0-0.858-0.727-1.558-2.389-1.558s-3.193,1.101-4.078,2.845h-0.188l-1.798-3.086c1.368-1.958,3.542-3.086,6.093-3.086
				C71.422,10.108,74.08,12.067,74.08,15.906z M70.375,18.375c-0.241,0.51-1.287,0.857-2.926,1.231
				c-1.637,0.378-2.094,0.915-2.094,1.64s0.513,1.18,1.611,1.18c1.878,0,3.461-1.1,3.461-2.439v-1.611H70.375L70.375,18.375z"/>
			<path fill="#FF4148" d="M88.247,12.846l-1.528,3.112h-0.189c-1.314-1.61-2.924-2.496-4.293-2.496
				c-1.368,0-1.986,0.671-1.986,1.316c0,0.697,0.217,1.02,2.898,1.662c3.758,0.885,5.664,1.934,5.664,4.832
				c0,2.79-2.631,4.51-5.904,4.51c-3.274,0-5.502-1.396-6.684-2.658l1.53-3.166h0.188c1.205,1.207,2.896,2.334,4.694,2.334
				c1.665,0,2.416-0.457,2.416-1.234c0-0.697-0.429-0.992-3.273-1.663c-3.542-0.832-5.152-2.254-5.152-4.696
				c0-2.442,2.014-4.588,5.527-4.588C85.242,10.108,87.469,11.907,88.247,12.846z"/>
			<path fill="#FF4148" d="M100,10.43v3.489h-4.159v6.789c0,0.859,0.295,1.154,0.968,1.154c0.645,0,1.366-0.322,1.959-0.777h0.187
				l0.914,3.703c-0.673,0.428-2.147,0.992-3.731,0.992c-2.281,0-4.052-1.182-4.052-4.134v-7.729h-2.469v-2.173
				c1.958-0.804,3.221-2.791,3.864-5.071h2.28v3.756L100,10.43L100,10.43z"/>
		</g>
	</g>
</g>
</svg>
