<?xml version="1.0" encoding="utf-8"?>
<!-- Generator: Adobe Illustrator 16.0.0, SVG Export Plug-In . SVG Version: 6.00 Build 0)  -->
<!DOCTYPE svg PUBLIC "-//W3C//DTD SVG 1.1//EN" "http://www.w3.org/Graphics/SVG/1.1/DTD/svg11.dtd">
<svg version="1.1" id="Layer_1" xmlns="http://www.w3.org/2000/svg" xmlns:xlink="http://www.w3.org/1999/xlink" x="0px" y="0px"
	 width="20px" height="20px" viewBox="0 0 20 20" enable-background="new 0 0 20 20" xml:space="preserve">
<g>
	<g>
		<path fill="#CCCCCC" d="M5.139,14.861l1.887-7.836l7.835-1.887l-1.887,7.837L5.139,14.861z M8.522,8.522l-0.937,3.891l3.892-0.937
			l0.937-3.892L8.522,8.522z"/>
	</g>
	<g>
		<circle fill="#CCCCCC" cx="10" cy="9.999" r="1.194"/>
	</g>
	<g>
		<path fill="#CCCCCC" d="M10,20C4.485,20,0,15.513,0,10C0,4.485,4.485,0,10,0c5.514,0,10,4.485,10,10C20,15.513,15.514,20,10,20z
			 M10,1.807c-4.518,0-8.193,3.676-8.193,8.193c0,4.518,3.676,8.193,8.193,8.193c4.518,0,8.193-3.678,8.193-8.193
			C18.193,5.482,14.518,1.807,10,1.807z"/>
	</g>
</g>
</svg>
