<?xml version="1.0" encoding="utf-8"?>
<!-- Generator: Adobe Illustrator 16.0.0, SVG Export Plug-In . SVG Version: 6.00 Build 0)  -->
<!DOCTYPE svg PUBLIC "-//W3C//DTD SVG 1.1//EN" "http://www.w3.org/Graphics/SVG/1.1/DTD/svg11.dtd">
<svg version="1.1" id="Layer_1" xmlns="http://www.w3.org/2000/svg" xmlns:xlink="http://www.w3.org/1999/xlink" x="0px" y="0px"
	 width="21.25px" height="8px" viewBox="2.938 8.5 21.25 8" enable-background="new 2.938 8.5 21.25 8" xml:space="preserve">
<rect x="2.797" y="8.5" fill="#FFFFFF" width="21.531" height="8"/>
<path fill="#FFFFFF" d="M-22.874,2.828v17.084h2.819l2.212,2.212l2.212-2.212h12.757V2.828H-22.874z M-20.117,6.794h6.364v2h-6.364
	V6.794z M-9.623,15.887h-10.494v-2h10.494V15.887z M-5.63,15.887h-1.993v-2h1.993V15.887z M-5.63,12.37h-14.487v-2H-5.63V12.37z
	 M-5.63,8.794h-6.123v-2h6.123V8.794z"/>
<line fill="none" stroke="#FFFFFF" stroke-width="2" stroke-miterlimit="10" x1="57.5" y1="-2.773" x2="57.5" y2="3.523"/>
<line fill="none" stroke="#FFFFFF" stroke-width="2" stroke-miterlimit="10" x1="60.648" y1="0.375" x2="54.352" y2="0.375"/>
<polyline fill="none" stroke="#FFFFFF" stroke-width="2" stroke-miterlimit="10" points="51.352,0.375 42.812,0.375 42.812,12.476 
	45.563,12.476 47.657,14.569 49.751,12.476 57.5,12.476 57.5,6.523 "/>
<g>
	<g>
		<path fill="#FFFFFF" d="M13.952-24c1.267,0,2.457,0.493,3.353,1.389c1.847,1.848,1.847,4.855,0,6.703
			c-0.896,0.895-2.086,1.388-3.353,1.388c-1.266,0-2.457-0.493-3.352-1.388c-1.848-1.848-1.848-4.855,0-6.703
			C11.496-23.507,12.686-24,13.952-24 M13.952-25c-1.469,0-2.938,0.561-4.059,1.682c-2.241,2.242-2.241,5.876,0,8.117
			c1.121,1.121,2.59,1.681,4.059,1.681c1.47,0,2.938-0.56,4.06-1.681c2.24-2.241,2.24-5.875,0-8.117
			C16.891-24.439,15.422-25,13.952-25L13.952-25z"/>
	</g>
	<line fill="none" stroke="#FFFFFF" stroke-miterlimit="10" x1="4.692" y1="-10" x2="8.204" y2="-13.511"/>
</g>
<g>
	<polygon fill="#FF4148" points="13.562,16.212 7.288,9.851 8,9.149 13.562,14.788 19.124,9.149 19.837,9.851 	"/>
</g>
</svg>
