<?xml version="1.0" encoding="utf-8"?>
<!-- Generator: Adobe Illustrator 16.0.0, SVG Export Plug-In . SVG Version: 6.00 Build 0)  -->
<!DOCTYPE svg PUBLIC "-//W3C//DTD SVG 1.1//EN" "http://www.w3.org/Graphics/SVG/1.1/DTD/svg11.dtd">
<svg version="1.1" id="Layer_1" xmlns="http://www.w3.org/2000/svg" xmlns:xlink="http://www.w3.org/1999/xlink" x="0px" y="0px"
	 width="20px" height="20px" viewBox="0 0 20 20" enable-background="new 0 0 20 20" xml:space="preserve">
<g>
	<path fill="#073C60" stroke="#073C60" stroke-miterlimit="10" d="M-15.114-19.124c-0.683-1.506-1.533-3.379-4.146-3.379
		c-2.97,0-4.004,3.1-5.005,6.098c-1.236,3.706-2.245,6.133-4.892,6.133c-1.104,0-1.48-0.393-1.592-0.564v2.322
		c0.443,0.148,0.967,0.242,1.592,0.242c4.286,0,5.674-4.158,6.789-7.5c0.982-2.943,1.682-4.73,3.108-4.73
		c1.271,0,1.632,0.676,2.326,2.206c0.832,1.834,1.973,4.347,6.185,4.347v-2C-13.674-15.951-14.341-17.421-15.114-19.124z"/>
</g>
<g>
	<g>
		<path fill="#073C60" d="M12.129-22.298L6.303-16.47l-1.476-1.478l3.312-3.311H0v-2.083h8.139L4.83-26.65l1.474-1.476
			L12.129-22.298z M20-29.134v13.746h-8.458v-2.084h6.375v-9.576h-6.375v-2.088H20V-29.134z"/>
	</g>
</g>
<g>
	<rect x="-27.654" y="12.154" fill="#073C60" width="4" height="7.846"/>
</g>
<g>
	<rect x="-19.654" y="2.094" fill="#073C60" width="4" height="17.906"/>
</g>
<g>
	<rect x="-11.654" y="6.103" fill="#073C60" width="4" height="13.897"/>
</g>
<g>
	<g>
		<path fill="#073C60" d="M36.926,13.485v-2.493c0.804,0,1.458-0.651,1.458-1.451c0-0.801-0.654-1.45-1.459-1.45H26.583V5.598
			h10.342c2.185,0,3.964,1.769,3.964,3.943C40.889,11.715,39.11,13.485,36.926,13.485z"/>
	</g>
	<g>
		<path fill="#073C60" d="M33.053,1.374h-6.47v-2.492h6.47c0.805,0,1.459-0.651,1.459-1.452c0-0.8-0.654-1.451-1.457-1.451v-2.493
			c2.184,0,3.961,1.77,3.961,3.944S35.238,1.374,33.053,1.374z"/>
	</g>
	<g>
		<path fill="#073C60" d="M26.583,4.746V2.254L41.31,2.249c1.564-0.002,2.77-1.202,2.77-2.677c0-1.474-1.204-2.673-2.685-2.673
			v-2.493c2.861,0,5.188,2.318,5.188,5.166c0,2.85-2.328,5.167-5.19,5.167l-0.024,0.004L26.583,4.746z"/>
	</g>
</g>
<path fill="#073C60" d="M14.997,41.438c-1.776,0-2.736-0.768-3.438-1.328c-0.56-0.447-0.84-0.672-1.565-0.672
	c-0.724,0-1.004,0.225-1.562,0.671c-0.701,0.562-1.661,1.329-3.437,1.329c-1.775,0-2.735-0.769-3.435-1.329
	C1.002,39.662,0.722,39.438,0,39.438v-3c1.775,0,2.735,0.769,3.435,1.329c0.558,0.446,0.838,0.671,1.56,0.671
	c0.724,0,1.004-0.225,1.563-0.671c0.701-0.562,1.661-1.329,3.437-1.329c1.777,0,2.737,0.768,3.438,1.328
	c0.56,0.447,0.84,0.672,1.564,0.672s1.005-0.225,1.564-0.672c0.701-0.561,1.661-1.328,3.438-1.328v3
	c-0.726,0-1.006,0.225-1.565,0.672C17.733,40.67,16.773,41.438,14.997,41.438z"/>
<path fill="#073C60" d="M14.997,33.938c-1.776,0-2.736-0.768-3.438-1.328c-0.56-0.447-0.84-0.672-1.565-0.672
	c-0.724,0-1.004,0.225-1.562,0.671c-0.701,0.562-1.661,1.329-3.437,1.329c-1.775,0-2.735-0.769-3.435-1.329
	C1.002,32.162,0.722,31.938,0,31.938v-3c1.775,0,2.735,0.769,3.435,1.329c0.558,0.446,0.838,0.671,1.56,0.671
	c0.724,0,1.004-0.225,1.563-0.671c0.701-0.562,1.661-1.329,3.437-1.329c1.777,0,2.737,0.768,3.438,1.328
	c0.56,0.447,0.84,0.672,1.564,0.672s1.005-0.225,1.564-0.672c0.701-0.561,1.661-1.328,3.438-1.328v3
	c-0.726,0-1.006,0.225-1.565,0.672C17.733,33.17,16.773,33.938,14.997,33.938z"/>
<path fill="#073C60" d="M14.997,26.438c-1.776,0-2.736-0.768-3.438-1.328c-0.56-0.447-0.84-0.672-1.565-0.672
	c-0.724,0-1.004,0.225-1.562,0.672c-0.701,0.561-1.661,1.328-3.437,1.328c-1.775,0-2.735-0.768-3.435-1.329
	C1.002,24.662,0.722,24.438,0,24.438v-3c1.775,0,2.735,0.768,3.435,1.329c0.558,0.446,0.838,0.671,1.56,0.671
	c0.724,0,1.004-0.225,1.563-0.672c0.701-0.561,1.661-1.328,3.437-1.328c1.777,0,2.737,0.768,3.438,1.328
	c0.56,0.447,0.84,0.672,1.564,0.672s1.005-0.225,1.564-0.672c0.701-0.561,1.661-1.328,3.438-1.328v3
	c-0.726,0-1.006,0.225-1.565,0.672C17.733,25.67,16.773,26.438,14.997,26.438z"/>
<polygon fill="#073C60" points="16.63,4.391 16.632,15.496 13.818,15.493 13.818,9.184 6.063,16.939 4.079,14.955 11.834,7.198 
	5.528,7.198 5.528,4.387 "/>
</svg>
