<?xml version="1.0" encoding="utf-8"?>
<!-- Generator: Adobe Illustrator 16.0.0, SVG Export Plug-In . SVG Version: 6.00 Build 0)  -->
<!DOCTYPE svg PUBLIC "-//W3C//DTD SVG 1.1//EN" "http://www.w3.org/Graphics/SVG/1.1/DTD/svg11.dtd">
<svg version="1.1" id="Layer_1" xmlns="http://www.w3.org/2000/svg" xmlns:xlink="http://www.w3.org/1999/xlink" x="0px" y="0px"
	 width="20px" height="20px" viewBox="0 0 20 20" enable-background="new 0 0 20 20" xml:space="preserve">
<g>
	<g>
		<path fill="#073C60" d="M12.129-22.298L6.303-16.47l-1.476-1.478l3.312-3.311H0v-2.083h8.139L4.83-26.65l1.474-1.476
			L12.129-22.298z M20-29.134v13.746h-8.458v-2.084h6.375v-9.576h-6.375v-2.088H20V-29.134z"/>
	</g>
</g>
<g>
	<rect x="-27.654" y="12.154" fill="#073C60" width="4" height="7.846"/>
</g>
<g>
	<rect x="-19.654" y="2.094" fill="#073C60" width="4" height="17.906"/>
</g>
<g>
	<rect x="-11.654" y="6.103" fill="#073C60" width="4" height="13.897"/>
</g>
<g>
	<g>
		<path fill="#073C60" d="M10.343,19.985v-2.493c0.804,0,1.458-0.651,1.458-1.451c0-0.801-0.654-1.45-1.459-1.45H0v-2.493h10.342
			c2.185,0,3.964,1.769,3.964,3.943C14.306,18.215,12.527,19.985,10.343,19.985z"/>
	</g>
	<g>
		<path fill="#073C60" d="M6.469,7.874H0V5.382h6.469c0.805,0,1.459-0.651,1.459-1.452c0-0.8-0.654-1.451-1.458-1.451v-2.493
			c2.184,0,3.961,1.77,3.961,3.944S8.655,7.874,6.469,7.874z"/>
	</g>
	<g>
		<path fill="#073C60" d="M0,11.246V8.754l14.727-0.005c1.564-0.002,2.77-1.202,2.77-2.677c0-1.474-1.204-2.673-2.685-2.673V0.905
			C17.673,0.905,20,3.224,20,6.071c0,2.85-2.328,5.167-5.19,5.167l-0.024,0.004L0,11.246z"/>
	</g>
</g>
</svg>
